<?xml version="1.0" encoding="UTF-8"?>
<svg id="Capa_2" data-name="Capa 2" xmlns="http://www.w3.org/2000/svg" viewBox="0 0 34.61 31.6">
  <defs>
    <style>
      .cls-1 {
        fill: #fff;
        stroke: #fff;
        stroke-miterlimit: 10;
        stroke-width: .75px;
      }
    </style>
  </defs>
  <g id="Capa_1-2" data-name="Capa 1">
    <g>
      <rect class="cls-1" x="22.56" y=".38" width="11.67" height="5.57" rx="1.92" ry="1.92"/>
      <path class="cls-1" d="m21.91,19.34c.88-1.62,1.37-3.47,1.37-5.44,0-6.33-5.13-11.45-11.45-11.45S.38,7.57.38,13.9s5.13,11.45,11.45,11.45c1.85,0,3.6-.45,5.15-1.23l6.38,6.38c.97.97,2.55.97,3.52,0l1.33-1.33c.97-.97.97-2.55,0-3.52l-6.3-6.3Zm-10.19.65c-3.41,0-6.17-2.76-6.17-6.17s2.76-6.17,6.17-6.17,6.17,2.76,6.17,6.17-2.76,6.17-6.17,6.17Z"/>
    </g>
  </g>
</svg>