<?xml version="1.0" encoding="UTF-8"?>
<svg id="Capa_2" data-name="Capa 2" xmlns="http://www.w3.org/2000/svg" viewBox="0 0 28 30.1">
  <defs>
    <style>
      .cls-1 {
        fill: #fff;
      }
    </style>
  </defs>
  <g id="Capa_1-2" data-name="Capa 1">
    <path class="cls-1" d="m27.2,6.71c-.94-.69-3.31-.45-4.64-.45h-2.99l1.61-1.61c.43-.43.43-1.13,0-1.56l-2.77-2.77c-.43-.43-1.13-.43-1.56,0l-3.02,3.02L10.86.37c-.43-.43-1.13-.43-1.56,0l-2.44,2.44c-.43.43-.43,1.13,0,1.56l1.89,1.89h-3.32c-1.42,0-3.75-.28-4.71.5C-.32,7.6.07,9.54.07,10.85v1.74c0,.73.59,1.32,1.32,1.32s1.32.58,1.32,1.31c.02,3.31.1,10.51.13,13.47,0,.72.59,1.31,1.32,1.31l19.57.1c.73,0,1.33-.58,1.33-1.31.02-2.98.07-10.25.09-13.59,0-.73.6-1.32,1.34-1.31h.08c.74.01,1.34-.58,1.34-1.32v-1.72c0-1.39.43-3.29-.72-4.14Z"/>
  </g>
</svg>