<?xml version="1.0" encoding="UTF-8"?>
<svg id="Capa_2" data-name="Capa 2" xmlns="http://www.w3.org/2000/svg" viewBox="0 0 28.29 31.98">
  <defs>
    <style>
      .cls-1 {
        fill: #fff;
      }
    </style>
  </defs>
  <g id="Capa_1-2" data-name="Capa 1">
    <g>
      <path class="cls-1" d="m9.69,4.84C9.69,2.17,7.52,0,4.84,0S0,2.17,0,4.84c0,1.72.9,3.22,2.26,4.08v19.09c0,1.22.74,2.2,1.65,2.2h1.86c.92,0,1.66-.99,1.66-2.21V8.93c1.35-.86,2.26-2.36,2.26-4.08Z"/>
      <path class="cls-1" d="m18.99,15.57c0-1.72-.9-3.22-2.26-4.08v-7.33c0-1.37-.83-2.48-1.86-2.48h-1.44c-1.03,0-1.87,1.11-1.87,2.49v7.32c-1.35.86-2.26,2.36-2.26,4.08s.9,3.22,2.26,4.08v8.09c0,1.37.83,2.48,1.86,2.48h1.44c1.03,0,1.87-1.11,1.87-2.49v-8.08c1.35-.86,2.26-2.36,2.26-4.08Z"/>
      <path class="cls-1" d="m26.03,23.06V3.94c0-1.25-.76-2.27-1.7-2.27h-1.76c-.95,0-1.71,1.02-1.71,2.28v19.11c-1.35.86-2.26,2.36-2.26,4.08,0,2.68,2.17,4.84,4.84,4.84s4.84-2.17,4.84-4.84c0-1.72-.9-3.22-2.26-4.08Z"/>
    </g>
  </g>
</svg>