<?xml version="1.0" encoding="UTF-8"?>
<svg id="Capa_2" data-name="Capa 2" xmlns="http://www.w3.org/2000/svg" viewBox="0 0 34.82 26.94">
  <defs>
    <style>
      .cls-1 {
        fill: #fff;
      }
    </style>
  </defs>
  <g id="Capa_1-2" data-name="Capa 1">
    <path class="cls-1" d="m31.46,8.18h-3.76V3.73c0-2.06-1.67-3.73-3.73-3.73h-13.13c-2.06,0-3.73,1.67-3.73,3.73v4.45h-3.76c-1.85,0-3.35,1.5-3.35,3.35v12.05c0,1.85,1.5,3.35,3.35,3.35h28.11c1.85,0,3.35-1.5,3.35-3.35v-12.05c0-1.85-1.5-3.35-3.35-3.35Zm-12.26,10.16c0,.58-.47,1.05-1.05,1.05h-1.49c-.58,0-1.05-.47-1.05-1.05v-6.1c0-.58.47-1.05,1.05-1.05h1.49c.58,0,1.05.47,1.05,1.05v6.1Z"/>
  </g>
</svg>