<?xml version="1.0" encoding="UTF-8"?>
<svg id="Capa_2" data-name="Capa 2" xmlns="http://www.w3.org/2000/svg" viewBox="0 0 24.6 24.6">
  <defs>
    <style>
      .cls-1 {
        fill: #fff;
      }
    </style>
  </defs>
  <g id="Capa_1-2" data-name="Capa 1">
    <path class="cls-1" d="m18.53,12.3l5.34-5.34c.98-.98.98-2.58,0-3.56l-2.66-2.66c-.98-.98-2.58-.98-3.56,0l-5.34,5.34L7.15.93C6.07-.16,4.3-.16,3.21.93L.93,3.21C-.16,4.3-.16,6.07.93,7.15l5.15,5.15L.74,17.64c-.98.98-.98,2.58,0,3.56l2.66,2.66c.98.98,2.58.98,3.56,0l5.34-5.34,5.15,5.15c1.09,1.09,2.85,1.09,3.94,0l2.29-2.29c1.09-1.09,1.09-2.85,0-3.94l-5.15-5.15Z"/>
  </g>
</svg>