<?xml version="1.0" encoding="UTF-8"?>
<svg id="Capa_2" data-name="Capa 2" xmlns="http://www.w3.org/2000/svg" viewBox="0 0 31.48 31.48">
  <defs>
    <style>
      .cls-1 {
        fill: #fff;
      }
    </style>
  </defs>
  <g id="Capa_1-2" data-name="Capa 1">
    <path class="cls-1" d="m29.89,12.95h-1.53c-.34-1.55-.95-3-1.79-4.28l1.2-1.2c.62-.62.62-1.63,0-2.25l-1.45-1.45c-.62-.62-1.63-.62-2.25,0l-1.2,1.2c-1.34-.88-2.86-1.52-4.49-1.84v-1.53c0-.88-.71-1.59-1.59-1.59h-2.06c-.88,0-1.59.71-1.59,1.59v1.58c-1.52.33-2.93.93-4.19,1.75l-1.21-1.21c-.62-.62-1.63-.62-2.25,0l-1.45,1.45c-.62.62-.62,1.63,0,2.25l1.19,1.19c-.86,1.3-1.49,2.76-1.83,4.34h-1.77c-.88,0-1.59.71-1.59,1.59v2.06c0,.88.71,1.59,1.59,1.59h1.73c.33,1.62.96,3.12,1.84,4.46l-1.11,1.11c-.62.62-.62,1.63,0,2.25l1.45,1.45c.62.62,1.63.62,2.25,0l1.11-1.11c1.28.84,2.71,1.45,4.25,1.79v1.74c0,.88.71,1.59,1.59,1.59h2.06c.88,0,1.59-.71,1.59-1.59v-1.68c1.65-.33,3.19-.98,4.55-1.87l1.1,1.1c.62.62,1.63.62,2.25,0l1.45-1.45c.62-.62.62-1.63,0-2.25l-1.12-1.12c.86-1.32,1.48-2.81,1.8-4.4h1.49c.88,0,1.59-.71,1.59-1.59v-2.06c0-.88-.71-1.59-1.59-1.59Zm-14.15,9.51c-3.81,0-6.89-3.09-6.89-6.89,0-1.79.69-3.41,1.8-4.63l.46-.46c1.22-1.11,2.85-1.8,4.63-1.8,3.81,0,6.89,3.09,6.89,6.89s-3.09,6.89-6.89,6.89Z"/>
  </g>
</svg>