<?xml version="1.0" encoding="UTF-8"?>
<svg id="Capa_2" data-name="Capa 2" xmlns="http://www.w3.org/2000/svg" viewBox="0 0 28.26 28.26">
  <defs>
    <style>
      .cls-1 {
        fill: #fff;
      }
    </style>
  </defs>
  <g id="Capa_1-2" data-name="Capa 1">
    <g>
      <path class="cls-1" d="m14.13,10.72c-1.89,0-3.41,1.53-3.41,3.41h0c0,1.89,1.53,3.41,3.41,3.41s3.41-1.53,3.41-3.41h0c0-1.89-1.53-3.41-3.41-3.41Z"/>
      <path class="cls-1" d="m14.13,0C6.33,0,0,6.33,0,14.13s6.33,14.13,14.13,14.13,14.13-6.33,14.13-14.13S21.94,0,14.13,0Zm-.13,21.65c-4.21,0-7.62-3.41-7.62-7.62s3.41-7.62,7.62-7.62,7.62,3.41,7.62,7.62-3.41,7.62-7.62,7.62Z"/>
    </g>
  </g>
</svg>