<?xml version="1.0" encoding="UTF-8"?>
<svg id="Capa_2" data-name="Capa 2" xmlns="http://www.w3.org/2000/svg" viewBox="0 0 29.27 29.27">
  <defs>
    <style>
      .cls-1 {
        fill: #fff;
      }
    </style>
  </defs>
  <g id="Capa_1-2" data-name="Capa 1">
    <path class="cls-1" d="m15.75,0h-2.24C6.05,0,0,6.05,0,13.51v2.24c0,7.46,6.05,13.51,13.51,13.51h2.24c7.46,0,13.51-6.05,13.51-13.51v-2.24C29.27,6.05,23.22,0,15.75,0Zm-6.91,9.48c1.42,0,2.58,1.15,2.58,2.58s-1.15,2.58-2.58,2.58-2.58-1.15-2.58-2.58,1.15-2.58,2.58-2.58Zm14.21,9.39c-.84,2.98-4.42,5.18-8.48,5.12-4.6-.07-8.3-2.89-8.3-6.36v-.02c0-.45.81-.59,1.11-.2,1.46,1.93,4.21,3.22,7.37,3.22s5.89-1.29,7.35-3.21c.31-.4,1.13-.26,1.13.2,0,.4-.06.82-.17,1.24Zm-2.4-4.24c-1.42,0-2.58-1.15-2.58-2.58s1.15-2.58,2.58-2.58,2.58,1.15,2.58,2.58-1.15,2.58-2.58,2.58Z"/>
  </g>
</svg>