<?xml version="1.0" encoding="UTF-8"?>
<svg id="Capa_2" data-name="Capa 2" xmlns="http://www.w3.org/2000/svg" viewBox="0 0 29.55 29.55">
  <defs>
    <style>
      .cls-1 {
        fill: #fff;
      }
    </style>
  </defs>
  <g id="Capa_1-2" data-name="Capa 1">
    <path class="cls-1" d="m28.63,5.67L21.86.71C20.77,0,16.19,0,14.87,0H5.68C2.54,0,0,2.54,0,5.68v18.19c0,3.14,2.54,5.68,5.68,5.68h18.19c3.14,0,5.68-2.54,5.68-5.68v-10.79c0-1.71.06-5.99-.92-7.41Zm-18.32,3.29c0-.64.52-1.16,1.16-1.16h6.61c.64,0,1.16.52,1.16,1.16v1.95c0,.64-.52,1.16-1.16,1.16h-6.61c-.64,0-1.16-.52-1.16-1.16v-1.95Zm12.05,13.04c0,1.05-.85,1.9-1.9,1.9h-11.37c-1.05,0-1.9-.85-1.9-1.9v-3.9c0-1.05.85-1.9,1.9-1.9h11.37c1.05,0,1.9.85,1.9,1.9v3.9Z"/>
  </g>
</svg>