<?xml version="1.0" encoding="UTF-8"?>
<svg id="Capa_2" data-name="Capa 2" xmlns="http://www.w3.org/2000/svg" viewBox="0 0 30.64 36.66">
  <defs>
    <style>
      .cls-1 {
        fill: #fff;
        stroke: #fff;
        stroke-miterlimit: 10;
      }
    </style>
  </defs>
  <g id="Capa_1-2" data-name="Capa 1">
    <path class="cls-1" d="m29.04,29.25l-4.09-8.86c1.87-2.11,3.02-4.88,3.02-7.93,0-6.61-5.36-11.96-11.96-11.96S4.04,5.86,4.04,12.46c0,2.58.82,4.96,2.21,6.91-.13.16-.24.33-.33.52L1.6,29.25c-.1.22-1.02,2.03-1.04,2.26l5.87-.45c.05.01.1.03.14.06l3.47,4.76c.16-.16.94-2.04,1.04-2.26l4.24-9.18,4.24,9.18c.1.22.89,2.09,1.04,2.26l3.47-4.76s.09-.05.14-.06l5.87.45c-.02-.22-.94-2.04-1.04-2.26ZM15.89,5.93c3.56,0,6.45,2.89,6.45,6.45s-2.89,6.45-6.45,6.45-6.45-2.89-6.45-6.45,2.89-6.45,6.45-6.45Z"/>
  </g>
</svg>