<?xml version="1.0" encoding="UTF-8"?>
<svg id="Capa_2" data-name="Capa 2" xmlns="http://www.w3.org/2000/svg" viewBox="0 0 28.94 28.94">
  <defs>
    <style>
      .cls-1 {
        fill: #fff;
      }
    </style>
  </defs>
  <g id="Capa_1-2" data-name="Capa 1">
    <path class="cls-1" d="m26.15,10.07h-7.28V2.52c0-1.39-1.13-2.52-2.52-2.52h-3.77c-1.39,0-2.52,1.13-2.52,2.52v7.55H2.79c-1.54,0-2.79,1.25-2.79,2.79v3.23c0,1.54,1.25,2.79,2.79,2.79h7.28v7.55c0,1.39,1.13,2.52,2.52,2.52h3.77c1.39,0,2.52-1.13,2.52-2.52v-7.55h7.28c1.54,0,2.79-1.25,2.79-2.79v-3.23c0-1.54-1.25-2.79-2.79-2.79Z"/>
  </g>
</svg>