<?xml version="1.0" encoding="UTF-8"?>
<svg id="Capa_2" data-name="Capa 2" xmlns="http://www.w3.org/2000/svg" viewBox="0 0 38.25 30.99">
  <defs>
    <style>
      .cls-1 {
        fill: #fff;
      }
    </style>
  </defs>
  <g id="Capa_1-2" data-name="Capa 1">
    <g>
      <path class="cls-1" d="m18.43,20.54c-4.61,0-8.56,2.7-10.28,6.55-.83,1.85.61,3.91,2.69,3.91h15.18c2.08,0,3.51-2.06,2.69-3.91-1.72-3.85-5.67-6.55-10.28-6.55Z"/>
      <circle class="cls-1" cx="18.75" cy="11.76" r="7.66" transform="translate(-2.2 4.62) rotate(-13.28)"/>
      <path class="cls-1" d="m9.71,15.3c-.43-1.1-.68-2.29-.68-3.54,0-4.35,2.86-8.03,6.8-9.27-1.4-1.53-3.41-2.49-5.64-2.49C5.96,0,2.53,3.43,2.53,7.66s3.17,7.39,7.18,7.64Z"/>
      <path class="cls-1" d="m28.47,11.76c0,1.25-.25,2.45-.68,3.55.09,0,.17.01.26.01,4.23,0,7.66-3.43,7.66-7.66s-3.43-7.66-7.66-7.66c-2.34,0-4.42,1.05-5.83,2.7,3.65,1.4,6.24,4.92,6.24,9.07Z"/>
      <path class="cls-1" d="m12.86,19.47c-1.07-.82-1.97-1.85-2.62-3.03-.02,0-.03,0-.05,0-4.47,0-8.3,2.7-9.97,6.55-.8,1.85.59,3.91,2.61,3.91h3.11c.05-.21.11-.43.2-.64,1.31-3.02,3.72-5.44,6.72-6.78Z"/>
      <path class="cls-1" d="m38.02,22.99c-1.67-3.85-5.5-6.55-9.97-6.55-.27,0-.54.01-.81.03-.73,1.32-1.76,2.44-3,3.29,2.7,1.39,4.86,3.68,6.07,6.48.09.21.15.43.2.64h4.89c2.01,0,3.41-2.06,2.61-3.91Z"/>
    </g>
  </g>
</svg>