<?xml version="1.0" encoding="UTF-8"?>
<svg id="Capa_2" data-name="Capa 2" xmlns="http://www.w3.org/2000/svg" viewBox="0 0 29.97 27.92">
  <defs>
    <style>
      .cls-1 {
        fill: #fff;
      }
    </style>
  </defs>
  <g id="Capa_1-2" data-name="Capa 1">
    <g>
      <path class="cls-1" d="m7.86,0H3.39C1.52,0,0,1.34,0,2.99v21.94c0,1.65,1.52,2.99,3.39,2.99h4.47c1.87,0,3.39-1.34,3.39-2.99V2.99c0-1.65-1.52-2.99-3.39-2.99Z"/>
      <path class="cls-1" d="m26.58,0h-4.47c-1.87,0-3.39,1.34-3.39,2.99v21.94c0,1.65,1.52,2.99,3.39,2.99h4.47c1.87,0,3.39-1.34,3.39-2.99V2.99c0-1.65-1.52-2.99-3.39-2.99Z"/>
    </g>
  </g>
</svg>