<?xml version="1.0" encoding="UTF-8"?>
<svg id="Capa_2" data-name="Capa 2" xmlns="http://www.w3.org/2000/svg" viewBox="0 0 34.54 35.37">
  <defs>
    <style>
      .cls-1 {
        fill: #fff;
        stroke: #fff;
        stroke-miterlimit: 10;
        stroke-width: .75px;
      }
    </style>
  </defs>
  <g id="Capa_1-2" data-name="Capa 1">
    <g>
      <path class="cls-1" d="m32.18,3.43h-1.07v-1.09c0-1.08-.88-1.96-1.96-1.96h-1.65c-1.08,0-1.96.88-1.96,1.96v1.09h-1.07c-1.09,0-1.98.89-1.98,1.98v1.61c0,1.09.89,1.98,1.98,1.98h1.07v1.09c0,1.08.88,1.96,1.96,1.96h1.65c1.08,0,1.96-.88,1.96-1.96v-1.09h1.07c1.09,0,1.98-.89,1.98-1.98v-1.61c0-1.09-.89-1.98-1.98-1.98Z"/>
      <path class="cls-1" d="m21.91,23.11c.88-1.62,1.37-3.47,1.37-5.44,0-6.33-5.13-11.45-11.45-11.45S.38,11.34.38,17.66s5.13,11.45,11.45,11.45c1.85,0,3.6-.45,5.15-1.23l6.38,6.38c.97.97,2.55.97,3.52,0l1.33-1.33c.97-.97.97-2.55,0-3.52l-6.3-6.3Zm-10.19.65c-3.41,0-6.17-2.76-6.17-6.17s2.76-6.17,6.17-6.17,6.17,2.76,6.17,6.17-2.76,6.17-6.17,6.17Z"/>
    </g>
  </g>
</svg>