<?xml version="1.0" encoding="UTF-8"?>
<svg id="Capa_2" data-name="Capa 2" xmlns="http://www.w3.org/2000/svg" viewBox="0 0 33.26 25.27">
  <defs>
    <style>
      .cls-1 {
        fill: #fff;
      }
    </style>
  </defs>
  <g id="Capa_1-2" data-name="Capa 1">
    <g>
      <path class="cls-1" d="m29.61,0H3.65C1.63,0,0,1.4,0,3.12v.59c0,1.72,1.63,3.12,3.65,3.12h25.96c2.02,0,3.65-1.4,3.65-3.12v-.59c0-1.72-1.63-3.12-3.65-3.12Z"/>
      <path class="cls-1" d="m29.61,9.22H3.65c-2.02,0-3.65,1.4-3.65,3.12v.59c0,1.72,1.63,3.12,3.65,3.12h25.96c2.02,0,3.65-1.4,3.65-3.12v-.59c0-1.72-1.63-3.12-3.65-3.12Z"/>
      <path class="cls-1" d="m29.61,18.44H3.65c-2.02,0-3.65,1.4-3.65,3.12v.59c0,1.72,1.63,3.12,3.65,3.12h25.96c2.02,0,3.65-1.4,3.65-3.12v-.59c0-1.72-1.63-3.12-3.65-3.12Z"/>
    </g>
  </g>
</svg>