<?xml version="1.0" encoding="UTF-8"?>
<svg id="Capa_2" data-name="Capa 2" xmlns="http://www.w3.org/2000/svg" viewBox="0 0 36.41 27.59">
  <defs>
    <style>
      .cls-1 {
        fill: #fff;
        stroke: #fff;
        stroke-miterlimit: 10;
      }
    </style>
  </defs>
  <g id="Capa_1-2" data-name="Capa 1">
    <g>
      <path class="cls-1" d="m18.68.92l-8.59,5.36H3.33c-1.53,0-2.78,1.24-2.78,2.78v4.2c-.07.36-.07.72,0,1.08v4.2c0,1.53,1.24,2.78,2.78,2.78h6.76l8.59,5.36c1.83,1.14,4.19-.17,4.19-2.33V3.25c0-2.15-2.37-3.46-4.19-2.33Z"/>
      <path class="cls-1" d="m33.46,13.72l1.92-2.08c.71-.77.71-2.02,0-2.79l-.23-.25c-.71-.77-1.86-.77-2.58,0l-1.92,2.08-1.92-2.08c-.71-.77-1.86-.77-2.58,0l-.23.25c-.71.77-.71,2.02,0,2.79l1.92,2.08-1.92,2.08c-.71.77-.71,2.02,0,2.79l.23.25c.71.77,1.86.77,2.58,0l1.92-2.08,1.92,2.08c.71.77,1.86.77,2.58,0l.23-.25c.71-.77.71-2.02,0-2.79l-1.92-2.08Z"/>
    </g>
  </g>
</svg>