<?xml version="1.0" encoding="UTF-8"?>
<svg id="Capa_2" data-name="Capa 2" xmlns="http://www.w3.org/2000/svg" viewBox="0 0 36.9 27.29">
  <defs>
    <style>
      .cls-1 {
        fill: #fff;
      }
    </style>
  </defs>
  <g id="Capa_1-2" data-name="Capa 1">
    <g>
      <path class="cls-1" d="m34.95,0H1.95C.87,0,0,.87,0,1.95v2.1c0,1.08.87,1.95,1.95,1.95h5.01v8.62c0,2.58,2.09,4.66,4.66,4.66h17.54c2.57,0,4.66-2.09,4.66-4.66V5.99h1.13c1.08,0,1.95-.87,1.95-1.95V1.95c0-1.08-.87-1.95-1.95-1.95Z"/>
      <path class="cls-1" d="m12.6,20.35c-1.92,0-3.47,1.55-3.47,3.47s1.55,3.47,3.47,3.47,3.47-1.55,3.47-3.47-1.55-3.47-3.47-3.47Z"/>
      <path class="cls-1" d="m28.44,20.35c-1.92,0-3.47,1.55-3.47,3.47s1.55,3.47,3.47,3.47,3.47-1.55,3.47-3.47-1.55-3.47-3.47-3.47Z"/>
    </g>
  </g>
</svg>