<?xml version="1.0" encoding="UTF-8"?>
<svg id="Capa_2" data-name="Capa 2" xmlns="http://www.w3.org/2000/svg" viewBox="0 0 29.31 29.53">
  <defs>
    <style>
      .cls-1 {
        fill: #fff;
        stroke: #fff;
        stroke-miterlimit: 10;
        stroke-width: .75px;
      }
    </style>
  </defs>
  <g id="Capa_1-2" data-name="Capa 1">
    <path class="cls-1" d="m28.21,23.57l-6.3-6.3c.88-1.62,1.37-3.47,1.37-5.44C23.28,5.5,18.15.38,11.83.38S.38,5.5.38,11.83s5.13,11.45,11.45,11.45c1.85,0,3.6-.45,5.15-1.23l6.38,6.38c.97.97,2.55.97,3.52,0l1.33-1.33c.97-.97.97-2.55,0-3.52Zm-16.49-5.65c-3.41,0-6.17-2.76-6.17-6.17s2.76-6.17,6.17-6.17,6.17,2.76,6.17,6.17-2.76,6.17-6.17,6.17Z"/>
  </g>
</svg>