<?xml version="1.0" encoding="UTF-8"?>
<svg id="Capa_2" data-name="Capa 2" xmlns="http://www.w3.org/2000/svg" viewBox="0 0 32.87 27.56">
  <defs>
    <style>
      .cls-1 {
        fill: #fff;
      }

      .cls-2 {
        fill: none;
        stroke: #fff;
        stroke-miterlimit: 10;
        stroke-width: 4.1px;
      }
    </style>
  </defs>
  <g id="Capa_1-2" data-name="Capa 1">
    <g>
      <path class="cls-1" d="m13.03,21.66H2.78C1.25,21.66,0,20.41,0,18.88v-10.04C0,7.3,1.25,6.06,2.78,6.06h10.25c1.53,0,2.78,1.24,2.78,2.78v10.04c0,1.53-1.24,2.78-2.78,2.78Z"/>
      <path class="cls-1" d="m1.25,11.48L18.29.44c1.82-1.18,4.23.13,4.23,2.3v22.07c0,2.17-2.41,3.48-4.23,2.3L1.25,16.08c-1.67-1.08-1.67-3.52,0-4.6Z"/>
      <g>
        <path class="cls-2" d="m26.76,4.08c.99,1.04,3.89,4.36,4.05,9.27.18,5.43-3.12,9.14-4.05,10.12"/>
        <path class="cls-1" d="m28.07,4.97l-.66.91c-.54.75-1.42.75-1.96,0h0c-.54-.75-.54-1.95,0-2.7l.66-.91c.54-.75,1.42-.75,1.96,0h0c.54.75.54,1.95,0,2.7Z"/>
        <path class="cls-1" d="m26.42,25.16l-.73-.84c-.6-.68-.71-1.87-.24-2.65h0c.47-.78,1.33-.86,1.93-.17l.73.84c.6.68.71,1.87.24,2.65h0c-.47.78-1.33.86-1.93.17Z"/>
      </g>
    </g>
  </g>
</svg>