<?xml version="1.0" encoding="UTF-8"?>
<svg id="Capa_2" data-name="Capa 2" xmlns="http://www.w3.org/2000/svg" viewBox="0 0 473.59 356.11">
  <defs>
    <style>
      .cls-1, .cls-2, .cls-3, .cls-4 {
        fill: #fff;
      }

      .cls-5 {
        stroke-width: 4.1px;
      }

      .cls-5, .cls-2, .cls-3, .cls-4 {
        stroke: #fff;
        stroke-miterlimit: 10;
      }

      .cls-5, .cls-6 {
        fill: none;
      }

      .cls-2 {
        stroke-width: 2px;
      }

      .cls-3 {
        stroke-width: .75px;
      }
    </style>
  </defs>
  <g id="Capa_1-2" data-name="Capa 1">
    <g>
      <path class="cls-1" d="m9.51,1.66h-4.47c-1.87,0-3.39,1.34-3.39,2.99v21.94c0,1.65,1.52,2.99,3.39,2.99h4.47c1.87,0,3.39-1.34,3.39-2.99V4.65c0-1.65-1.52-2.99-3.39-2.99Z"/>
      <path class="cls-1" d="m28.23,1.66h-4.47c-1.87,0-3.39,1.34-3.39,2.99v21.94c0,1.65,1.52,2.99,3.39,2.99h4.47c1.87,0,3.39-1.34,3.39-2.99V4.65c0-1.65-1.52-2.99-3.39-2.99Z"/>
    </g>
    <path class="cls-1" d="m91.96,13.89l-18.41-10.63c-1.33-.77-3,.19-3,1.73v21.26c0,1.54,1.67,2.5,3,1.73l18.41-10.63c1.33-.77,1.33-2.69,0-3.46Z"/>
    <path class="cls-1" d="m147.97,15.62l5.34-5.34c.98-.98.98-2.58,0-3.56l-2.66-2.66c-.98-.98-2.58-.98-3.56,0l-5.34,5.34-5.15-5.15c-1.09-1.09-2.85-1.09-3.94,0l-2.29,2.29c-1.09,1.09-1.09,2.85,0,3.94l5.15,5.15-5.34,5.34c-.98.98-.98,2.58,0,3.56l2.66,2.66c.98.98,2.58.98,3.56,0l5.34-5.34,5.15,5.15c1.09,1.09,2.85,1.09,3.94,0l2.29-2.29c1.09-1.09,1.09-2.85,0-3.94l-5.15-5.15Z"/>
    <path class="cls-1" d="m221.59,6.97l-2.66-2.66c-.98-.98-2.58-.98-3.56,0l-12.52,12.52-5.25-5.25c-1.09-1.09-2.85-1.09-3.94,0l-2.29,2.29c-1.09,1.09-1.09,2.85,0,3.94l9.44,9.44c.2.2.43.36.68.48.98.67,2.33.58,3.2-.29l16.9-16.9c.98-.98.98-2.58,0-3.56Z"/>
    <g>
      <path class="cls-1" d="m29.61,68.32H3.65c-2.02,0-3.65,1.4-3.65,3.12v.59c0,1.72,1.63,3.12,3.65,3.12h25.96c2.02,0,3.65-1.4,3.65-3.12v-.59c0-1.72-1.63-3.12-3.65-3.12Z"/>
      <path class="cls-1" d="m29.61,77.54H3.65c-2.02,0-3.65,1.4-3.65,3.12v.59c0,1.72,1.63,3.12,3.65,3.12h25.96c2.02,0,3.65-1.4,3.65-3.12v-.59c0-1.72-1.63-3.12-3.65-3.12Z"/>
      <path class="cls-1" d="m29.61,86.76H3.65c-2.02,0-3.65,1.4-3.65,3.12v.59c0,1.72,1.63,3.12,3.65,3.12h25.96c2.02,0,3.65-1.4,3.65-3.12v-.59c0-1.72-1.63-3.12-3.65-3.12Z"/>
    </g>
    <g>
      <path class="cls-6" d="m218.57,68.92l-.19,24.24"/>
      <g>
        <path class="cls-1" d="m201.94,89.76h-10.25c-1.53,0-2.78-1.24-2.78-2.78v-10.04c0-1.53,1.24-2.78,2.78-2.78h10.25c1.53,0,2.78,1.24,2.78,2.78v10.04c0,1.53-1.24,2.78-2.78,2.78Z"/>
        <path class="cls-1" d="m190.16,79.58l17.04-11.03c1.82-1.18,4.23.13,4.23,2.3v22.07c0,2.17-2.41,3.48-4.23,2.3l-17.04-11.03c-1.67-1.08-1.67-3.52,0-4.6Z"/>
        <g>
          <path class="cls-5" d="m215.67,72.18c.99,1.04,3.89,4.36,4.05,9.27.18,5.43-3.12,9.14-4.05,10.12"/>
          <path class="cls-1" d="m216.98,73.07l-.66.91c-.54.75-1.42.75-1.96,0h0c-.54-.75-.54-1.95,0-2.7l.66-.91c.54-.75,1.42-.75,1.96,0h0c.54.75.54,1.95,0,2.7Z"/>
          <path class="cls-1" d="m215.33,93.27l-.73-.84c-.6-.68-.71-1.87-.24-2.65h0c.47-.78,1.33-.86,1.93-.17l.73.84c.6.68.71,1.87.24,2.65h0c-.47.78-1.33.86-1.93.17Z"/>
        </g>
      </g>
    </g>
    <g>
      <path class="cls-4" d="m270.58,69.01l-8.59,5.36h-6.76c-1.53,0-2.78,1.24-2.78,2.78v4.2c-.07.36-.07.72,0,1.08v4.2c0,1.53,1.24,2.78,2.78,2.78h6.76l8.59,5.36c1.83,1.14,4.19-.17,4.19-2.33v-21.1c0-2.15-2.37-3.46-4.19-2.33Z"/>
      <path class="cls-4" d="m285.36,81.81l1.92-2.08c.71-.77.71-2.02,0-2.79l-.23-.25c-.71-.77-1.86-.77-2.58,0l-1.92,2.08-1.92-2.08c-.71-.77-1.86-.77-2.58,0l-.23.25c-.71.77-.71,2.02,0,2.79l1.92,2.08-1.92,2.08c-.71.77-.71,2.02,0,2.79l.23.25c.71.77,1.86.77,2.58,0l1.92-2.08,1.92,2.08c.71.77,1.86.77,2.58,0l.23-.25c.71-.77.71-2.02,0-2.79l-1.92-2.08Z"/>
    </g>
    <path class="cls-1" d="m348.17,79.1l-14.96-13.63c-.76-.7-1.93-.7-2.69,0l-14.96,13.63c-1.35,1.23-.48,3.48,1.35,3.48h2.49v10.11c0,1.32,1.07,2.38,2.38,2.38h4.44c1.32,0,2.38-1.07,2.38-2.38v-10.11h6.24v10.11c0,1.32,1.07,2.38,2.38,2.38h4.44c1.32,0,2.38-1.07,2.38-2.38v-10.11h2.77c1.83,0,2.7-2.25,1.35-3.48Z"/>
    <path class="cls-4" d="m409.1,91.86l-4.09-8.86c1.87-2.11,3.02-4.88,3.02-7.93,0-6.61-5.36-11.96-11.96-11.96s-11.96,5.36-11.96,11.96c0,2.58.82,4.96,2.21,6.91-.13.16-.24.33-.33.52l-4.32,9.36c-.1.22-1.02,2.03-1.04,2.26l5.87-.45c.05.01.1.03.14.06l3.47,4.76c.16-.16.94-2.04,1.04-2.26l4.24-9.18,4.24,9.18c.1.22.89,2.09,1.04,2.26l3.47-4.76s.09-.05.14-.06l5.87.45c-.02-.22-.94-2.04-1.04-2.26Zm-13.15-23.32c3.56,0,6.45,2.89,6.45,6.45s-2.89,6.45-6.45,6.45-6.45-2.89-6.45-6.45,2.89-6.45,6.45-6.45Z"/>
    <path class="cls-1" d="m28.31,139.02h-7.28v-7.55c0-1.39-1.13-2.52-2.52-2.52h-3.77c-1.39,0-2.52,1.13-2.52,2.52v7.55h-7.28c-1.54,0-2.79,1.25-2.79,2.79v3.23c0,1.54,1.25,2.79,2.79,2.79h7.28v7.55c0,1.39,1.13,2.52,2.52,2.52h3.77c1.39,0,2.52-1.13,2.52-2.52v-7.55h7.28c1.54,0,2.79-1.25,2.79-2.79v-3.23c0-1.54-1.25-2.79-2.79-2.79Z"/>
    <rect class="cls-1" x="65.28" y="139.02" width="28.94" height="8.81" rx="2.79" ry="2.79"/>
    <path class="cls-1" d="m347.73,135.27l-2.29-2.29c-1.09-1.09-2.85-1.09-3.94,0l-9.59,9.59-9.59-9.59c-1.09-1.09-2.85-1.09-3.94,0l-2.29,2.29c-1.09,1.09-1.09,2.85,0,3.94l13.83,13.83c.55.55,1.27.82,1.99.81.72,0,1.44-.27,1.99-.81l13.83-13.83c1.09-1.09,1.09-2.85,0-3.94Z"/>
    <path class="cls-1" d="m471.53,138.02l-13.83-13.83c-1.09-1.09-2.85-1.09-3.94,0l-2.29,2.29c-1.09,1.09-1.09,2.85,0,3.94l9.59,9.59-9.59,9.59c-1.09,1.09-1.09,2.85,0,3.94l2.29,2.29c1.09,1.09,2.85,1.09,3.94,0l13.83-13.83c.55-.55.82-1.27.81-1.99,0-.72-.27-1.44-.81-1.99Z"/>
    <path class="cls-1" d="m412.51,140.9l-13.83-13.83c-.55-.55-1.27-.82-1.99-.81-.72,0-1.44.27-1.99.81l-13.83,13.83c-1.09,1.09-1.09,2.85,0,3.94l2.29,2.29c1.09,1.09,2.85,1.09,3.94,0l9.59-9.59,9.59,9.59c1.09,1.09,2.85,1.09,3.94,0l2.29-2.29c1.09-1.09,1.09-2.85,0-3.94Z"/>
    <path class="cls-1" d="m265.51,140.01l9.59-9.59c1.09-1.09,1.09-2.85,0-3.94l-2.29-2.29c-1.09-1.09-2.85-1.09-3.94,0l-13.83,13.83c-.55.55-.82,1.27-.81,1.99,0,.72.27,1.44.81,1.99l13.83,13.83c1.09,1.09,2.85,1.09,3.94,0l2.29-2.29c1.09-1.09,1.09-2.85,0-3.94l-9.59-9.59Z"/>
    <path class="cls-2" d="m28.93,198.51h-2.66c0-4.92-3.99-8.92-8.92-8.92s-8.92,3.99-8.92,8.92h-2.66c-1.32,0-2.38,1.07-2.38,2.38v17.83c0,1.32,1.07,2.38,2.38,2.38h23.15c1.32,0,2.38-1.07,2.38-2.38v-17.83c0-1.32-1.07-2.38-2.38-2.38Zm-11.57-6.1c3.37,0,6.1,2.73,6.1,6.1h-12.19c0-3.37,2.73-6.1,6.1-6.1Z"/>
    <path class="cls-2" d="m91.32,198.51h-17.67c0-3.37,2.73-6.1,6.1-6.1,2.41,0,4.49,1.4,5.48,3.43l2.56-1.17c-1.44-3-4.49-5.08-8.04-5.08-4.92,0-8.92,3.99-8.92,8.92h0s-2.66,0-2.66,0c-1.32,0-2.38,1.07-2.38,2.38v17.83c0,1.32,1.07,2.38,2.38,2.38h23.15c1.32,0,2.38-1.07,2.38-2.38v-17.83c0-1.32-1.07-2.38-2.38-2.38Z"/>
    <g>
      <circle class="cls-1" cx="141.12" cy="198.51" r="8.98"/>
      <path class="cls-1" d="m152.8,216.46c-1.96-4.51-6.44-7.67-11.67-7.67s-9.72,3.16-11.67,7.67c-.94,2.16.7,4.58,3.05,4.58h17.24c2.36,0,3.99-2.41,3.05-4.58Z"/>
    </g>
    <g>
      <rect class="cls-4" x="264.31" y="203.09" width="7.52" height="19.02" rx="2.38" ry="2.38"/>
      <circle class="cls-4" cx="268.07" cy="195.41" r="5.55"/>
    </g>
    <g>
      <rect class="cls-4" x="328.15" y="189.75" width="7.52" height="19.02" rx="2.38" ry="2.38"/>
      <circle class="cls-4" cx="331.91" cy="216.45" r="5.55" transform="translate(-55.84 298.09) rotate(-45)"/>
    </g>
    <path class="cls-1" d="m411.68,200.08h-3.76v-4.45c0-2.06-1.67-3.73-3.73-3.73h-13.13c-2.06,0-3.73,1.67-3.73,3.73v4.45h-3.76c-1.85,0-3.35,1.5-3.35,3.35v12.05c0,1.85,1.5,3.35,3.35,3.35h28.11c1.85,0,3.35-1.5,3.35-3.35v-12.05c0-1.85-1.5-3.35-3.35-3.35Zm-12.26,10.16c0,.58-.47,1.05-1.05,1.05h-1.49c-.58,0-1.05-.47-1.05-1.05v-6.1c0-.58.47-1.05,1.05-1.05h1.49c.58,0,1.05.47,1.05,1.05v6.1Z"/>
    <path class="cls-1" d="m469.24,198.71h-6.48l8.29-2.78c.94-.32,1.45-1.34,1.14-2.28l-.73-2.18c-.32-.94-1.34-1.45-2.28-1.14l-22.96,7.69c-.94.32-1.45,1.34-1.14,2.28l.49,1.46v13.23c0,1.54,1.25,2.78,2.78,2.78h20.9c1.54,0,2.78-1.25,2.78-2.78v-13.51c0-1.54-1.25-2.78-2.78-2.78Z"/>
    <g>
      <path class="cls-1" d="m35.32,260.69H2.32c-1.08,0-1.95.87-1.95,1.95v2.1c0,1.08.87,1.95,1.95,1.95h5.01v8.62c0,2.58,2.09,4.66,4.66,4.66h17.54c2.57,0,4.66-2.09,4.66-4.66v-8.62h1.13c1.08,0,1.95-.87,1.95-1.95v-2.1c0-1.08-.87-1.95-1.95-1.95Z"/>
      <path class="cls-1" d="m12.97,281.04c-1.92,0-3.47,1.55-3.47,3.47s1.55,3.47,3.47,3.47,3.47-1.55,3.47-3.47-1.55-3.47-3.47-3.47Z"/>
      <path class="cls-1" d="m28.81,281.04c-1.92,0-3.47,1.55-3.47,3.47s1.55,3.47,3.47,3.47,3.47-1.55,3.47-3.47-1.55-3.47-3.47-3.47Z"/>
    </g>
    <rect class="cls-1" x="66.24" y="258.43" width="27.02" height="27.02" rx="5.2" ry="5.2"/>
    <circle class="cls-1" cx="140.99" cy="271.94" r="13.51" transform="translate(-150.99 179.34) rotate(-45)"/>
    <path class="cls-1" d="m333.15,257.72c-5.96,5.96-9.3,9.3-15.26,15.26v8.02c0,3.46,2.8,6.26,6.26,6.26h17.02c3.46,0,6.26-2.8,6.26-6.26v-9c-5.58-5.58-8.71-8.71-14.29-14.29Z"/>
    <path class="cls-1" d="m282.56,263.39l-6.77-4.96c-1.1-.72-5.68-.71-7-.71h-9.18c-3.14,0-5.68,2.54-5.68,5.68v18.19c0,3.14,2.54,5.68,5.68,5.68h18.19c3.14,0,5.68-2.54,5.68-5.68v-10.79c0-1.71.06-5.99-.92-7.41Zm-18.32,3.29c0-.64.52-1.16,1.16-1.16h6.61c.64,0,1.16.52,1.16,1.16v1.95c0,.64-.52,1.16-1.16,1.16h-6.61c-.64,0-1.16-.52-1.16-1.16v-1.95Zm12.05,13.04c0,1.05-.85,1.9-1.9,1.9h-11.37c-1.05,0-1.9-.85-1.9-1.9v-3.9c0-1.05.85-1.9,1.9-1.9h11.37c1.05,0,1.9.85,1.9,1.9v3.9Z"/>
    <path class="cls-1" d="m412.42,280.57l-11.69-20.24c-1.38-2.39-4.82-2.39-6.2,0l-11.69,20.24c-1.38,2.39.34,5.37,3.1,5.37h23.38c2.76,0,4.48-2.98,3.1-5.37Zm-16.57-12.68c0-.68.55-1.24,1.24-1.24h1.09c.68,0,1.24.55,1.24,1.24v6.59c0,.68-.55,1.24-1.24,1.24h-1.09c-.68,0-1.24-.55-1.24-1.24v-6.59Zm1.79,14.96c-1.46,0-2.64-1.18-2.64-2.64s1.18-2.64,2.64-2.64,2.64,1.18,2.64,2.64-1.18,2.64-2.64,2.64Z"/>
    <path class="cls-1" d="m470,262.02h-23.38c-2.76,0-4.48,2.98-3.1,5.37l11.69,20.24c1.38,2.39,4.82,2.39,6.2,0l11.69-20.24c1.38-2.39-.34-5.37-3.1-5.37Zm-13.47,5.3c0-.68.55-1.24,1.24-1.24h1.09c.68,0,1.24.55,1.24,1.24v6.59c0,.68-.55,1.24-1.24,1.24h-1.09c-.68,0-1.24-.55-1.24-1.24v-6.59Zm1.79,14.96c-1.46,0-2.64-1.18-2.64-2.64s1.18-2.64,2.64-2.64,2.64,1.18,2.64,2.64-1.18,2.64-2.64,2.64Z"/>
    <path class="cls-1" d="m210.5,260.69c-2.28,0-4.36.87-5.93,2.29-1.57-1.42-3.64-2.29-5.93-2.29-4.89,0-8.86,3.97-8.86,8.86,0,2.58,1.11,4.9,2.87,6.52.07.11.14.23.24.33l10.39,10.63c.67.69,1.79.69,2.46,0l10.39-10.63s0,0,0-.01c1.97-1.63,3.22-4.08,3.22-6.83,0-4.89-3.97-8.86-8.86-8.86Z"/>
    <path class="cls-1" d="m30.81,329.85c.01-2.66-2.13-4.8-4.79-4.79l-10.39.05c-2.66.01-4.82,2.18-4.83,4.83l-.09,19.76c0,.46-.16,4.35-.02,4.76l9.89-5.54c.1-.02.2-.02.3,0l9.84,5.45c.14-.41.02-4.3.02-4.76l.09-19.76Z"/>
    <g>
      <circle class="cls-1" cx="79.75" cy="338.27" r="8.55" transform="translate(-75.59 27.37) rotate(-13.28)"/>
      <rect class="cls-1" x="90.5" y="335.83" width="7.1" height="4.88" rx="2.23" ry="2.23"/>
      <rect class="cls-1" x="61.91" y="335.83" width="7.1" height="4.88" rx="2.23" ry="2.23"/>
      <rect class="cls-1" x="87.42" y="344.83" width="4.88" height="7.1" rx="2.23" ry="2.23" transform="translate(-220.02 165.58) rotate(-45)"/>
      <rect class="cls-1" x="67.2" y="324.61" width="4.88" height="7.1" rx="2.23" ry="2.23" transform="translate(-211.65 145.36) rotate(-45)"/>
      <rect class="cls-1" x="77.31" y="349.01" width="4.88" height="7.1" rx="2.23" ry="2.23"/>
      <rect class="cls-1" x="77.31" y="320.43" width="4.88" height="7.1" rx="2.23" ry="2.23"/>
      <rect class="cls-1" x="66.1" y="345.93" width="7.1" height="4.88" rx="2.23" ry="2.23" transform="translate(-225.94 151.28) rotate(-45)"/>
      <rect class="cls-1" x="86.31" y="325.72" width="7.1" height="4.88" rx="2.23" ry="2.23" transform="translate(-205.73 159.66) rotate(-45)"/>
    </g>
    <path class="cls-1" d="m151.49,348.54c-5.55.3-11.1-2.29-14.34-7.3-3.25-5.02-3.32-11.17-.74-16.12.53-1.02-.6-2.12-1.56-1.5-.01,0-.02.02-.04.02-7.35,4.75-9.52,14.49-4.94,21.9,4.04,6.54,12.37,9.21,19.54,6.47,1.01-.39,1.94-.86,2.8-1.41.98-.63.44-2.13-.73-2.07Z"/>
    <g>
      <path class="cls-1" d="m201.51,324.74c0-2.68-2.17-4.84-4.84-4.84s-4.84,2.17-4.84,4.84c0,1.72.9,3.22,2.26,4.08v19.09c0,1.22.74,2.2,1.65,2.2h1.86c.92,0,1.66-.99,1.66-2.21v-19.08c1.35-.86,2.26-2.36,2.26-4.08Z"/>
      <path class="cls-1" d="m210.81,335.46c0-1.72-.9-3.22-2.26-4.08v-7.33c0-1.37-.83-2.48-1.86-2.48h-1.44c-1.03,0-1.87,1.11-1.87,2.49v7.32c-1.35.86-2.26,2.36-2.26,4.08s.9,3.22,2.26,4.08v8.09c0,1.37.83,2.48,1.86,2.48h1.44c1.03,0,1.87-1.11,1.87-2.49v-8.08c1.35-.86,2.26-2.36,2.26-4.08Z"/>
      <path class="cls-1" d="m217.85,342.95v-19.12c0-1.25-.76-2.27-1.7-2.27h-1.76c-.95,0-1.71,1.02-1.71,2.28v19.11c-1.35.86-2.26,2.36-2.26,4.08,0,2.68,2.17,4.84,4.84,4.84s4.84-2.17,4.84-4.84c0-1.72-.9-3.22-2.26-4.08Z"/>
    </g>
    <path class="cls-1" d="m281.9,325.2c-.94-.69-3.31-.45-4.64-.45h-2.99l1.61-1.61c.43-.43.43-1.13,0-1.56l-2.77-2.77c-.43-.43-1.13-.43-1.56,0l-3.02,3.02-2.97-2.97c-.43-.43-1.13-.43-1.56,0l-2.44,2.44c-.43.43-.43,1.13,0,1.56l1.89,1.89h-3.32c-1.42,0-3.75-.28-4.71.5-1.03.84-.65,2.77-.65,4.09v1.74c0,.73.59,1.32,1.32,1.32s1.32.58,1.32,1.31c.02,3.31.1,10.51.13,13.47,0,.72.59,1.31,1.32,1.31l19.57.1c.73,0,1.33-.58,1.33-1.31.02-2.98.07-10.25.09-13.59,0-.73.6-1.32,1.34-1.31h.08c.74.01,1.34-.58,1.34-1.32v-1.72c0-1.39.43-3.29-.72-4.14Z"/>
    <g>
      <rect class="cls-1" x="320.01" y="324.97" width="25.31" height="18.69" rx="3.81" ry="3.81"/>
      <rect class="cls-1" x="320.01" y="345.6" width="25.31" height="3.98" rx="1.83" ry="1.83"/>
    </g>
    <rect class="cls-1" x="383.72" y="326.37" width="27.82" height="20.54" rx="3.81" ry="3.81" transform="translate(734.27 -60.98) rotate(90)"/>
    <g>
      <rect class="cls-1" x="450.99" y="329.84" width="19.93" height="19.85" rx="1.77" ry="1.77"/>
      <path class="cls-1" d="m471.46,325.83h-3.31v-1.14c0-.6-.49-1.09-1.09-1.09h-12.2c-.6,0-1.09.49-1.09,1.09v1.14h-3.31c-.6,0-1.09.49-1.09,1.09v.84c0,.6.49,1.09,1.09,1.09h21c.6,0,1.09-.49,1.09-1.09v-.84c0-.6-.49-1.09-1.09-1.09Z"/>
    </g>
    <path class="cls-1" d="m344.81,9.61h-7.26V3.07c0-1.35-1.09-2.44-2.44-2.44h-3.48c-1.35,0-2.44,1.09-2.44,2.44v1.36l-5.21,5.21h-3.28c-1.02,0-1.84.83-1.84,1.84v15.02c0,1.02.83,1.84,1.84,1.84h3.94c.1,0,.19.03.29.03h16.09c2.63,0,4.77-2.13,4.77-4.77v-13.03c0-.53-.43-.97-.97-.97Z"/>
    <path class="cls-1" d="m403.41,3.35h-16.09c-.1,0-.19.02-.29.03h-3.94c-1.02,0-1.84.83-1.84,1.84v15.02c0,1.02.83,1.84,1.84,1.84h3.28l5.21,5.21v1.36c0,1.35,1.09,2.44,2.44,2.44h3.48c1.35,0,2.44-1.09,2.44-2.44v-6.54h7.26c.53,0,.97-.43.97-.97v-13.03c0-2.63-2.13-4.77-4.77-4.77Z"/>
    <path class="cls-1" d="m459.82,1.23h-2.24c-7.46,0-13.51,6.05-13.51,13.51v2.24c0,7.46,6.05,13.51,13.51,13.51h2.24c7.46,0,13.51-6.05,13.51-13.51v-2.24c0-7.46-6.05-13.51-13.51-13.51Zm-6.91,9.48c1.42,0,2.58,1.15,2.58,2.58s-1.15,2.58-2.58,2.58-2.58-1.15-2.58-2.58,1.15-2.58,2.58-2.58Zm14.21,9.39c-.84,2.98-4.42,5.18-8.48,5.12-4.6-.07-8.3-2.89-8.3-6.36v-.02c0-.45.81-.59,1.11-.2,1.46,1.93,4.21,3.22,7.37,3.22s5.89-1.29,7.35-3.21c.31-.4,1.13-.26,1.13.2,0,.4-.06.82-.17,1.24Zm-2.4-4.24c-1.42,0-2.58-1.15-2.58-2.58s1.15-2.58,2.58-2.58,2.58,1.15,2.58,2.58-1.15,2.58-2.58,2.58Z"/>
    <g>
      <rect class="cls-1" x="454.69" y="64.25" width="7.52" height="12.57" rx="2.08" ry="2.08"/>
      <path class="cls-1" d="m469.58,72.12l-3.87,3.87c1.28,1.59,2.05,3.62,2.05,5.82,0,5.14-4.17,9.31-9.31,9.31s-9.31-4.17-9.31-9.31c0-2.17.75-4.17,2-5.76l-.15-.15.15-.15-3.72-3.72c-2.31,2.61-3.73,6.03-3.73,9.78,0,8.16,6.61,14.77,14.77,14.77s14.77-6.61,14.77-14.77c0-3.71-1.38-7.09-3.64-9.69Z"/>
    </g>
    <path class="cls-1" d="m282.6,12.95h-1.53c-.34-1.55-.95-3-1.79-4.28l1.2-1.2c.62-.62.62-1.63,0-2.25l-1.45-1.45c-.62-.62-1.63-.62-2.25,0l-1.2,1.2c-1.34-.88-2.86-1.52-4.49-1.84v-1.53c0-.88-.71-1.59-1.59-1.59h-2.06c-.88,0-1.59.71-1.59,1.59v1.58c-1.52.33-2.93.93-4.19,1.75l-1.21-1.21c-.62-.62-1.63-.62-2.25,0l-1.45,1.45c-.62.62-.62,1.63,0,2.25l1.19,1.19c-.86,1.3-1.49,2.76-1.83,4.34h-1.77c-.88,0-1.59.71-1.59,1.59v2.06c0,.88.71,1.59,1.59,1.59h1.73c.33,1.62.96,3.12,1.84,4.46l-1.11,1.11c-.62.62-.62,1.63,0,2.25l1.45,1.45c.62.62,1.63.62,2.25,0l1.11-1.11c1.28.84,2.71,1.45,4.25,1.79v1.74c0,.88.71,1.59,1.59,1.59h2.06c.88,0,1.59-.71,1.59-1.59v-1.68c1.65-.33,3.19-.98,4.55-1.87l1.1,1.1c.62.62,1.63.62,2.25,0l1.45-1.45c.62-.62.62-1.63,0-2.25l-1.12-1.12c.86-1.32,1.48-2.81,1.8-4.4h1.49c.88,0,1.59-.71,1.59-1.59v-2.06c0-.88-.71-1.59-1.59-1.59Zm-14.15,9.51c-3.81,0-6.89-3.09-6.89-6.89,0-1.79.69-3.41,1.8-4.63l.46-.46c1.22-1.11,2.85-1.8,4.63-1.8,3.81,0,6.89,3.09,6.89,6.89s-3.09,6.89-6.89,6.89Z"/>
    <g>
      <path class="cls-1" d="m79.75,77.54c-1.89,0-3.41,1.53-3.41,3.41h0c0,1.89,1.53,3.41,3.41,3.41s3.41-1.53,3.41-3.41h0c0-1.89-1.53-3.41-3.41-3.41Z"/>
      <path class="cls-1" d="m79.75,66.82c-7.8,0-14.13,6.33-14.13,14.13s6.33,14.13,14.13,14.13,14.13-6.33,14.13-14.13-6.33-14.13-14.13-14.13Zm-.13,21.65c-4.21,0-7.62-3.41-7.62-7.62s3.41-7.62,7.62-7.62,7.62,3.41,7.62,7.62-3.41,7.62-7.62,7.62Z"/>
    </g>
    <path class="cls-3" d="m154.54,89.51l-6.3-6.3c.88-1.62,1.37-3.47,1.37-5.44,0-6.33-5.13-11.45-11.45-11.45s-11.45,5.13-11.45,11.45,5.13,11.45,11.45,11.45c1.85,0,3.6-.45,5.15-1.23l6.38,6.38c.97.97,2.55.97,3.52,0l1.33-1.33c.97-.97.97-2.55,0-3.52Zm-16.49-5.65c-3.41,0-6.17-2.76-6.17-6.17s2.76-6.17,6.17-6.17,6.17,2.76,6.17,6.17-2.76,6.17-6.17,6.17Z"/>
    <g>
      <path class="cls-1" d="m204.01,211.47c-4.61,0-8.56,2.7-10.28,6.55-.83,1.85.61,3.91,2.69,3.91h15.18c2.08,0,3.51-2.06,2.69-3.91-1.72-3.85-5.67-6.55-10.28-6.55Z"/>
      <circle class="cls-1" cx="204.33" cy="202.69" r="7.66" transform="translate(-41.1 52.37) rotate(-13.28)"/>
      <path class="cls-1" d="m195.29,206.23c-.43-1.1-.68-2.29-.68-3.54,0-4.35,2.86-8.03,6.8-9.27-1.4-1.53-3.41-2.49-5.64-2.49-4.23,0-7.66,3.43-7.66,7.66s3.17,7.39,7.18,7.64Z"/>
      <path class="cls-1" d="m214.04,202.69c0,1.25-.25,2.45-.68,3.55.09,0,.17.01.26.01,4.23,0,7.66-3.43,7.66-7.66s-3.43-7.66-7.66-7.66c-2.34,0-4.42,1.05-5.83,2.7,3.65,1.4,6.24,4.92,6.24,9.07Z"/>
      <path class="cls-1" d="m198.43,210.4c-1.07-.82-1.97-1.85-2.62-3.03-.02,0-.03,0-.05,0-4.47,0-8.3,2.7-9.97,6.55-.8,1.85.59,3.91,2.61,3.91h3.11c.05-.21.11-.43.2-.64,1.31-3.02,3.72-5.44,6.72-6.78Z"/>
      <path class="cls-1" d="m223.59,213.92c-1.67-3.85-5.5-6.55-9.97-6.55-.27,0-.54.01-.81.03-.73,1.32-1.76,2.44-3,3.29,2.7,1.39,4.86,3.68,6.07,6.48.09.21.15.43.2.64h4.89c2.01,0,3.41-2.06,2.61-3.91Z"/>
    </g>
    <g>
      <rect class="cls-3" x="147.53" y="126.96" width="11.67" height="5.57" rx="1.92" ry="1.92"/>
      <path class="cls-3" d="m146.88,145.93c.88-1.62,1.37-3.47,1.37-5.44,0-6.33-5.13-11.45-11.45-11.45s-11.45,5.13-11.45,11.45,5.13,11.45,11.45,11.45c1.85,0,3.6-.45,5.15-1.23l6.38,6.38c.97.97,2.55.97,3.52,0l1.33-1.33c.97-.97.97-2.55,0-3.52l-6.3-6.3Zm-10.19.65c-3.41,0-6.17-2.76-6.17-6.17s2.76-6.17,6.17-6.17,6.17,2.76,6.17,6.17-2.76,6.17-6.17,6.17Z"/>
    </g>
    <g>
      <path class="cls-3" d="m220.68,127.96h-1.07v-1.09c0-1.08-.88-1.96-1.96-1.96h-1.65c-1.08,0-1.96.88-1.96,1.96v1.09h-1.07c-1.09,0-1.98.89-1.98,1.98v1.61c0,1.09.89,1.98,1.98,1.98h1.07v1.09c0,1.08.88,1.96,1.96,1.96h1.65c1.08,0,1.96-.88,1.96-1.96v-1.09h1.07c1.09,0,1.98-.89,1.98-1.98v-1.61c0-1.09-.89-1.98-1.98-1.98Z"/>
      <path class="cls-3" d="m210.41,147.64c.88-1.62,1.37-3.47,1.37-5.44,0-6.33-5.13-11.45-11.45-11.45s-11.45,5.13-11.45,11.45,5.13,11.45,11.45,11.45c1.85,0,3.6-.45,5.15-1.23l6.38,6.38c.97.97,2.55.97,3.52,0l1.33-1.33c.97-.97.97-2.55,0-3.52l-6.3-6.3Zm-10.19.65c-3.41,0-6.17-2.76-6.17-6.17s2.76-6.17,6.17-6.17,6.17,2.76,6.17,6.17-2.76,6.17-6.17,6.17Z"/>
    </g>
  </g>
</svg>