<?xml version="1.0" encoding="UTF-8"?>
<svg id="Capa_2" data-name="Capa 2" xmlns="http://www.w3.org/2000/svg" viewBox="0 0 30.55 27.4">
  <defs>
    <style>
      .cls-1 {
        fill: #fff;
      }
    </style>
  </defs>
  <g id="Capa_1-2" data-name="Capa 1">
    <path class="cls-1" d="m26.96,0H3.58C.83,0-.89,2.98.48,5.37l11.69,20.24c1.38,2.39,4.82,2.39,6.2,0L30.06,5.37c1.38-2.39-.34-5.37-3.1-5.37Zm-13.47,5.3c0-.68.55-1.24,1.24-1.24h1.09c.68,0,1.24.55,1.24,1.24v6.59c0,.68-.55,1.24-1.24,1.24h-1.09c-.68,0-1.24-.55-1.24-1.24v-6.59Zm1.79,14.96c-1.46,0-2.64-1.18-2.64-2.64s1.18-2.64,2.64-2.64,2.64,1.18,2.64,2.64-1.18,2.64-2.64,2.64Z"/>
  </g>
</svg>