<?xml version="1.0" encoding="UTF-8"?>
<svg id="Capa_2" data-name="Capa 2" xmlns="http://www.w3.org/2000/svg" viewBox="0 0 51.02 51.02">
  <defs>
    <style>
      .cls-1 {
        fill: #fff;
      }

      .cls-2 {
        fill: #1d1d1b;
      }
    </style>
  </defs>
  <g id="Capa_1-2" data-name="Capa 1">
    <rect class="cls-1" width="51.02" height="51.02" rx="9.21" ry="9.21"/>
    <path class="cls-2" d="m35.25,38.64l-19.57-.1c-.72,0-1.31-.59-1.32-1.31-.03-2.95-.11-10.15-.13-13.47,0-.73-.6-1.31-1.32-1.31h0c-.73,0-1.32-.59-1.32-1.32v-1.74c0-1.31-.39-3.25.65-4.09.96-.78,3.28-.5,4.71-.5h17.14c1.33,0,3.7-.24,4.64.45,1.14.84.72,2.74.72,4.14v1.72c0,.74-.6,1.34-1.34,1.32h-.08c-.73-.01-1.34.57-1.34,1.31-.01,3.34-.06,10.6-.09,13.59,0,.73-.6,1.32-1.33,1.31Z"/>
    <rect class="cls-2" x="19.61" y="8.95" width="5.66" height="8.06" rx="1.11" ry="1.11" transform="translate(-2.61 19.67) rotate(-45)"/>
    <rect class="cls-2" x="25.38" y="9.06" width="6.13" height="8.13" rx="1.11" ry="1.11" transform="translate(39.28 42.51) rotate(-135)"/>
  </g>
</svg>