<?xml version="1.0" encoding="UTF-8"?>
<svg id="Capa_2" data-name="Capa 2" xmlns="http://www.w3.org/2000/svg" viewBox="0 0 51.02 51.02">
  <defs>
    <style>
      .cls-1 {
        fill: #fff;
      }

      .cls-2 {
        fill: #f6f6f6;
      }

      .cls-3 {
        fill: #1d1d1b;
      }
    </style>
  </defs>
  <g id="Capa_1-2" data-name="Capa 1">
    <rect class="cls-1" width="51.02" height="51.02" rx="9.21" ry="9.21"/>
    <rect class="cls-3" x="10.88" y="10.88" width="29.27" height="29.27" rx="13.51" ry="13.51"/>
    <path class="cls-2" d="m33.93,29.75c.12-.42.17-.83.17-1.24,0-.46-.82-.6-1.13-.2-1.46,1.91-4.2,3.21-7.35,3.21s-5.91-1.3-7.37-3.22c-.3-.4-1.11-.26-1.11.2,0,0,0,.01,0,.02,0,3.47,3.7,6.29,8.3,6.36,4.06.06,7.64-2.14,8.48-5.12Z"/>
    <circle class="cls-1" cx="19.73" cy="22.93" r="2.58"/>
    <circle class="cls-1" cx="31.53" cy="22.93" r="2.58"/>
  </g>
</svg>