<?xml version="1.0" encoding="UTF-8"?>
<svg id="Capa_2" data-name="Capa 2" xmlns="http://www.w3.org/2000/svg" viewBox="0 0 51.02 51.02">
  <defs>
    <style>
      .cls-1 {
        fill: #fff;
      }

      .cls-2 {
        fill: #1d1d1b;
      }
    </style>
  </defs>
  <g id="Capa_1-2" data-name="Capa 1">
    <rect class="cls-1" width="51.02" height="51.02" rx="9.21" ry="9.21"/>
    <g>
      <path class="cls-2" d="m38.49,12.88H12.53c-2.02,0-3.65,1.4-3.65,3.12v.59c0,1.72,1.63,3.12,3.65,3.12h25.96c2.02,0,3.65-1.4,3.65-3.12v-.59c0-1.72-1.63-3.12-3.65-3.12Z"/>
      <path class="cls-2" d="m38.49,22.1H12.53c-2.02,0-3.65,1.4-3.65,3.12v.59c0,1.72,1.63,3.12,3.65,3.12h25.96c2.02,0,3.65-1.4,3.65-3.12v-.59c0-1.72-1.63-3.12-3.65-3.12Z"/>
      <path class="cls-2" d="m38.49,31.32H12.53c-2.02,0-3.65,1.4-3.65,3.12v.59c0,1.72,1.63,3.12,3.65,3.12h25.96c2.02,0,3.65-1.4,3.65-3.12v-.59c0-1.72-1.63-3.12-3.65-3.12Z"/>
    </g>
  </g>
</svg>