<?xml version="1.0" encoding="UTF-8"?>
<svg id="Capa_2" data-name="Capa 2" xmlns="http://www.w3.org/2000/svg" viewBox="0 0 51.02 51.02">
  <defs>
    <style>
      .cls-1 {
        fill: #fff;
      }

      .cls-2 {
        fill: #1d1d1b;
      }
    </style>
  </defs>
  <g id="Capa_1-2" data-name="Capa 1">
    <rect class="cls-1" width="51.02" height="51.02" rx="9.21" ry="9.21"/>
    <path class="cls-2" d="m40.3,23.13c0-4.89-3.97-8.86-8.86-8.86-2.28,0-4.36.87-5.93,2.29-1.57-1.42-3.64-2.29-5.93-2.29-4.89,0-8.86,3.97-8.86,8.86,0,2.58,1.11,4.9,2.87,6.52.07.11.14.23.24.33l10.39,10.63c.67.69,1.79.69,2.46,0l10.39-10.63s0,0,0-.01c1.97-1.63,3.22-4.08,3.22-6.83Z"/>
  </g>
</svg>