<?xml version="1.0" encoding="UTF-8"?>
<svg id="Capa_2" data-name="Capa 2" xmlns="http://www.w3.org/2000/svg" viewBox="0 0 51.02 51.02">
  <defs>
    <style>
      .cls-1 {
        fill: #fff;
      }

      .cls-2 {
        fill: #1d1d1b;
      }
    </style>
  </defs>
  <g id="Capa_1-2" data-name="Capa 1">
    <rect class="cls-1" width="51.02" height="51.02" rx="9.21" ry="9.21"/>
    <g>
      <path class="cls-2" d="m37.4,37.51V13.52c0-1.25-.76-2.27-1.7-2.27h-1.76c-.95,0-1.71,1.02-1.71,2.28v24c0,1.25.76,2.27,1.7,2.27h1.76c.95,0,1.71-1.02,1.71-2.28Z"/>
      <path class="cls-2" d="m28.1,37.3V13.73c0-1.37-.83-2.48-1.86-2.48h-1.44c-1.03,0-1.87,1.11-1.87,2.49v23.58c0,1.37.83,2.48,1.86,2.48h1.44c1.03,0,1.87-1.11,1.87-2.49Z"/>
      <path class="cls-2" d="m18.8,37.58V13.45c0-1.22-.74-2.2-1.65-2.2h-1.86c-.92,0-1.66.99-1.66,2.21v24.13c0,1.22.74,2.2,1.65,2.2h1.86c.92,0,1.66-.99,1.66-2.21Z"/>
    </g>
    <circle class="cls-2" cx="16.21" cy="14.42" r="4.84"/>
    <circle class="cls-2" cx="25.51" cy="25.14" r="4.84"/>
    <circle class="cls-2" cx="34.81" cy="36.72" r="4.84"/>
  </g>
</svg>