<?xml version="1.0" encoding="UTF-8"?>
<svg id="Capa_2" data-name="Capa 2" xmlns="http://www.w3.org/2000/svg" viewBox="0 0 51.02 51.02">
  <defs>
    <style>
      .cls-1 {
        fill: #fff;
      }

      .cls-2 {
        stroke: #000;
        stroke-miterlimit: 10;
        stroke-width: 4.1px;
      }

      .cls-2, .cls-3 {
        fill: none;
      }

      .cls-4 {
        fill: #1d1d1b;
      }
    </style>
  </defs>
  <g id="Capa_1-2" data-name="Capa 1">
    <rect class="cls-1" width="51.02" height="51.02" rx="9.21" ry="9.21"/>
    <path class="cls-3" d="m39.51,13.48l-.19,24.24"/>
    <g>
      <path class="cls-4" d="m22.88,34.32h-10.25c-1.53,0-2.78-1.24-2.78-2.78v-10.04c0-1.53,1.24-2.78,2.78-2.78h10.25c1.53,0,2.78,1.24,2.78,2.78v10.04c0,1.53-1.24,2.78-2.78,2.78Z"/>
      <path class="cls-4" d="m11.1,24.14l17.04-11.03c1.82-1.18,4.23.13,4.23,2.3v22.07c0,2.17-2.41,3.48-4.23,2.3l-17.04-11.03c-1.67-1.08-1.67-3.52,0-4.6Z"/>
      <g>
        <path class="cls-2" d="m36.61,16.74c.99,1.04,3.89,4.36,4.05,9.27.18,5.43-3.12,9.14-4.05,10.12"/>
        <path class="cls-4" d="m37.92,17.64l-.66.91c-.54.75-1.42.75-1.96,0h0c-.54-.75-.54-1.95,0-2.7l.66-.91c.54-.75,1.42-.75,1.96,0h0c.54.75.54,1.95,0,2.7Z"/>
        <path class="cls-4" d="m36.27,37.83l-.73-.84c-.6-.68-.71-1.87-.24-2.65h0c.47-.78,1.33-.86,1.93-.17l.73.84c.6.68.71,1.87.24,2.65h0c-.47.78-1.33.86-1.93.17Z"/>
      </g>
    </g>
  </g>
</svg>