<?xml version="1.0" encoding="UTF-8"?>
<svg id="Capa_2" data-name="Capa 2" xmlns="http://www.w3.org/2000/svg" viewBox="0 0 51.02 51.02">
  <defs>
    <style>
      .cls-1 {
        fill: #fff;
      }

      .cls-2 {
        fill: none;
      }

      .cls-3 {
        stroke: #1d1d1b;
        stroke-miterlimit: 10;
      }

      .cls-3, .cls-4 {
        fill: #1d1d1b;
      }
    </style>
  </defs>
  <g id="Capa_1-2" data-name="Capa 1">
    <rect class="cls-1" width="51.02" height="51.02" rx="9.21" ry="9.21"/>
    <path class="cls-2" d="m39.51,13.48l-.19,24.24"/>
    <g>
      <path class="cls-4" d="m22.83,33.03h-9.73c-1.53,0-2.78-1.24-2.78-2.78v-9.48c0-1.53,1.24-2.78,2.78-2.78h9.73c1.53,0,2.78,1.24,2.78,2.78v9.48c0,1.53-1.24,2.78-2.78,2.78Z"/>
      <path class="cls-4" d="m11.54,23.19l16.9-10.55c1.83-1.14,4.19.17,4.19,2.33v21.1c0,2.15-2.37,3.46-4.19,2.33l-16.9-10.55c-1.72-1.07-1.72-3.58,0-4.65Z"/>
    </g>
    <path class="cls-3" d="m45.14,23.36l-6.66,7.2c-.71.77-1.86.77-2.58,0l-.23-.25c-.71-.77-.71-2.02,0-2.79l6.66-7.2c.71-.77,1.86-.77,2.58,0l.23.25c.71.77.71,2.02,0,2.79Z"/>
    <path class="cls-3" d="m42.33,30.56l-6.66-7.2c-.71-.77-.71-2.02,0-2.79l.23-.25c.71-.77,1.86-.77,2.58,0l6.66,7.2c.71.77.71,2.02,0,2.79l-.23.25c-.71.77-1.86.77-2.58,0Z"/>
  </g>
</svg>