<?xml version="1.0" encoding="UTF-8"?>
<svg id="Capa_2" data-name="Capa 2" xmlns="http://www.w3.org/2000/svg" viewBox="0 0 51.02 51.02">
  <defs>
    <style>
      .cls-1 {
        fill: #fff;
      }

      .cls-2 {
        fill: #1d1d1b;
      }
    </style>
  </defs>
  <g id="Capa_1-2" data-name="Capa 1">
    <rect class="cls-1" width="51.02" height="51.02" rx="9.21" ry="9.21"/>
    <circle class="cls-2" cx="25.51" cy="25.51" r="8.55"/>
    <rect class="cls-2" x="36.26" y="23.07" width="7.1" height="4.88" rx="2.23" ry="2.23"/>
    <rect class="cls-2" x="7.67" y="23.07" width="7.1" height="4.88" rx="2.23" ry="2.23"/>
    <rect class="cls-2" x="32.07" y="33.18" width="7.1" height="4.88" rx="2.23" ry="2.23" transform="translate(35.62 -14.75) rotate(45)"/>
    <rect class="cls-2" x="11.86" y="12.96" width="7.1" height="4.88" rx="2.23" ry="2.23" transform="translate(15.4 -6.38) rotate(45)"/>
    <rect class="cls-2" x="21.96" y="37.36" width="7.1" height="4.88" rx="2.23" ry="2.23" transform="translate(65.32 14.29) rotate(90)"/>
    <rect class="cls-2" x="21.96" y="8.78" width="7.1" height="4.88" rx="2.23" ry="2.23" transform="translate(36.73 -14.29) rotate(90)"/>
    <rect class="cls-2" x="11.86" y="33.18" width="7.1" height="4.88" rx="2.23" ry="2.23" transform="translate(51.48 49.91) rotate(135)"/>
    <rect class="cls-2" x="32.07" y="12.96" width="7.1" height="4.88" rx="2.23" ry="2.23" transform="translate(71.7 1.11) rotate(135)"/>
  </g>
</svg>