<?xml version="1.0" encoding="UTF-8"?>
<svg id="Capa_2" data-name="Capa 2" xmlns="http://www.w3.org/2000/svg" viewBox="0 0 51.02 51.02">
  <defs>
    <style>
      .cls-1 {
        fill: #fff;
      }

      .cls-2 {
        fill: #1d1d1b;
      }
    </style>
  </defs>
  <g id="Capa_1-2" data-name="Capa 1">
    <rect class="cls-1" x="0" width="51.02" height="51.02" rx="9.21" ry="9.21"/>
    <g>
      <path class="cls-2" d="m18.39,12.69h-4.47c-1.87,0-3.39,1.34-3.39,2.99v21.94c0,1.65,1.52,2.99,3.39,2.99h4.47c1.87,0,3.39-1.34,3.39-2.99V15.68c0-1.65-1.52-2.99-3.39-2.99Z"/>
      <path class="cls-2" d="m37.11,12.69h-4.47c-1.87,0-3.39,1.34-3.39,2.99v21.94c0,1.65,1.52,2.99,3.39,2.99h4.47c1.87,0,3.39-1.34,3.39-2.99V15.68c0-1.65-1.52-2.99-3.39-2.99Z"/>
    </g>
  </g>
</svg>